<svg version="1.1" xmlns="http://www.w3.org/2000/svg" xmlns:xlink="http://www.w3.org/1999/xlink" width="24px" height="24px" viewBox="0,0,256,256"><g fill="#ffffff" fill-rule="nonzero" stroke="none" stroke-width="1" stroke-linecap="butt" stroke-linejoin="miter" stroke-miterlimit="10" stroke-dasharray="" stroke-dashoffset="0" font-family="none" font-weight="none" font-size="none" text-anchor="none" style="mix-blend-mode: normal"><g transform="scale(10.66667,10.66667)"><path d="M16.78906,1.00146l-0.00153,-0.00037c-1.51166,-0.66406 -3.12183,-1.0011 -4.78754,-1.0011c-3.30151,0 -6.41364,1.36005 -8.67474,3.73322c-0.19379,-0.48407 -0.32526,-0.95532 -0.32526,-1.23322c0,-0.2041 -0.12402,-0.38721 -0.31251,-0.46387c-0.18945,-0.0752 -0.40527,-0.02979 -0.54784,0.1167c-1.31445,1.36426 -1.36914,3.09912 -0.74707,4.24268c-0.91211,1.72656 -1.39258,3.65771 -1.39258,5.60449c0,6.6167 5.38281,12 12,12c6.61719,0 12,-5.3833 12,-12c0,-4.77637 -2.83008,-9.09375 -7.21094,-10.99854zM12,1c1.50818,0 2.966,0.30353 4.33563,0.89734c1.92041,1.3501 3.09149,4.97229 3.16144,7.83557c-0.44922,-0.85742 -1.08789,-1.61377 -1.87793,-2.20361c-0.19727,-0.14795 -0.47559,-0.12842 -0.65137,0.04639c-0.17578,0.17529 -0.19727,0.45215 -0.0498,0.65186c0.70801,0.95703 1.08203,2.08887 1.08203,3.27246c0,3.03271 -2.46777,5.5 -5.5,5.5c-0.70996,0 -1.19238,-0.0752 -1.63867,-0.25928c0.59961,-0.22607 1.12988,-0.56641 1.62207,-0.88184c0.68848,-0.44189 1.33887,-0.85889 2.0166,-0.85889c0.1543,0 0.2998,-0.0708 0.39453,-0.19238c0.09473,-0.12109 0.12793,-0.2793 0.09082,-0.42871c-0.11914,-0.47705 -0.6875,-1.37891 -1.98535,-1.37891c-0.71875,0 -1.03613,0.28369 -1.29102,0.51123c-0.26953,0.24023 -0.54785,0.48877 -1.70898,0.48877c-2.04687,0 -3,-1.19336 -3,-2c0,-0.24316 0.15918,-0.51416 0.43749,-0.74316c0.34962,-0.2876 0.70704,-0.36816 0.70899,-0.40332c0.19531,0.19531 0.51172,0.19531 0.70703,0c0.35059,-0.3501 0.33008,-0.81641 0.24805,-1.15332l2.67578,-1.78418c0.18359,-0.12207 0.26465,-0.3501 0.20117,-0.56104c-0.06348,-0.21094 -0.25781,-0.35498 -0.47852,-0.35498h-1c-1.11328,0 -1.84082,-0.21631 -1.99707,-0.59326c-0.22852,-0.55176 0.52539,-1.72754 1.35059,-2.55322c0.14355,-0.14307 0.18555,-0.35791 0.1084,-0.54492c-0.07715,-0.18701 -0.25977,-0.30859 -0.46191,-0.30859c-1.62402,0 -2.69629,1.28125 -3.21289,1.9541c-0.65332,-0.07568 -1.7627,-0.04199 -2.26172,0.0332c-0.04456,-0.04456 -0.12256,-0.13861 -0.22571,-0.29901c2.08832,-2.34174 5.0517,-3.68829 8.20032,-3.68829z"></path></g></g></svg>