<svg version="1.1" xmlns="http://www.w3.org/2000/svg" xmlns:xlink="http://www.w3.org/1999/xlink" width="50px" height="50px" viewBox="0,0,256,256"><g fill="#ffffff" fill-rule="nonzero" stroke="none" stroke-width="1" stroke-linecap="butt" stroke-linejoin="miter" stroke-miterlimit="10" stroke-dasharray="" stroke-dashoffset="0" font-family="none" font-weight="none" font-size="none" text-anchor="none" style="mix-blend-mode: normal"><g transform="scale(5.12,5.12)"><path d="M25.03125,1.96875c-12.67888,0 -23,10.32112 -23,23c0,12.67888 10.32112,23 23,23c6.79596,0 12.91587,-2.96948 17.12109,-7.66602c0.50167,-0.52825 0.67647,-1.28748 0.45629,-1.98191c-0.22017,-0.69444 -0.8005,-1.21425 -1.51489,-1.35694c-0.71439,-0.14269 -1.44987,0.11431 -1.91992,0.67089c-3.48078,3.88746 -8.50854,6.33398 -14.14258,6.33398c-10.51712,0 -19,-8.48288 -19,-19c0,-10.51712 8.48288,-19 19,-19c5.63295,0 10.66069,2.4463 14.14258,6.33398c0.47005,0.55657 1.20553,0.81358 1.91992,0.67089c0.71439,-0.14269 1.29471,-0.66251 1.51489,-1.35694c0.22017,-0.69444 0.04538,-1.45366 -0.45629,-1.98191c-4.20612,-4.69632 -10.32604,-7.66602 -17.12109,-7.66602zM38.94727,15.94922c-0.81349,0.00101 -1.54533,0.49459 -1.85108,1.24844c-0.30574,0.75385 -0.12447,1.61777 0.4585,2.18515l3.58594,3.58594h-18.17187c-0.72127,-0.0102 -1.39216,0.36875 -1.75578,0.99175c-0.36361,0.623 -0.36361,1.39351 0,2.01651c0.36361,0.623 1.0345,1.00195 1.75578,0.99175h18.17188l-3.58594,3.58594c-0.52248,0.50163 -0.73295,1.24653 -0.55024,1.94742c0.18271,0.70088 0.73006,1.24823 1.43094,1.43094c0.70088,0.18271 1.44578,-0.02776 1.94742,-0.55024l6.82227,-6.82227c0.49926,-0.37926 0.79179,-0.97068 0.79026,-1.59765c-0.00153,-0.62697 -0.29696,-1.21695 -0.79807,-1.59376l-6.81445,-6.81445c-0.37701,-0.38755 -0.89487,-0.60596 -1.43555,-0.60547z"></path></g></g></svg>