<svg version="1.1" xmlns="http://www.w3.org/2000/svg" xmlns:xlink="http://www.w3.org/1999/xlink" width="50px" height="50px" viewBox="0,0,256,256"><g fill="#ffffff" fill-rule="nonzero" stroke="none" stroke-width="1" stroke-linecap="butt" stroke-linejoin="miter" stroke-miterlimit="10" stroke-dasharray="" stroke-dashoffset="0" font-family="none" font-weight="none" font-size="none" text-anchor="none" style="mix-blend-mode: normal"><g transform="scale(5.12,5.12)"><path d="M24.9707,1.97266c-0.61575,0.0094 -1.19284,0.30191 -1.56445,0.79297l-6.82031,6.82031c-0.52248,0.50163 -0.73294,1.24653 -0.55023,1.94741c0.18271,0.70088 0.73006,1.24823 1.43094,1.43094c0.70088,0.18271 1.44578,-0.02775 1.94741,-0.55023l3.58594,-3.58594v18.17188c-0.0102,0.72127 0.36875,1.39216 0.99175,1.75578c0.623,0.36361 1.39351,0.36361 2.01651,0c0.623,-0.36361 1.00195,-1.0345 0.99175,-1.75578v-18.17187l3.58594,3.58594c0.50163,0.52248 1.24653,0.73294 1.94741,0.55023c0.70088,-0.18271 1.24823,-0.73006 1.43094,-1.43094c0.18271,-0.70088 -0.02775,-1.44578 -0.55023,-1.94741l-6.82812,-6.82812c-0.38404,-0.50231 -0.98299,-0.79345 -1.61523,-0.78516zM11.07227,7.28711c-0.51972,-0.01303 -1.0241,0.17681 -1.40625,0.5293c-4.69632,4.20612 -7.66602,10.32604 -7.66602,17.12109c0,12.67888 10.32112,23 23,23c12.67888,0 23,-10.32112 23,-23c0,-6.79596 -2.96948,-12.91587 -7.66602,-17.12109c-0.53103,-0.48602 -1.28226,-0.6492 -1.96707,-0.42728c-0.68481,0.22192 -1.19754,0.79471 -1.34256,1.49982c-0.14502,0.70511 0.10003,1.43376 0.64167,1.90793c3.88746,3.48078 6.33398,8.50659 6.33398,14.14063c0,10.51712 -8.48288,19 -19,19c-10.51712,0 -19,-8.48288 -19,-19c0,-5.63295 2.4463,-10.66069 6.33398,-14.14258c0.62182,-0.54161 0.84753,-1.40932 0.56843,-2.18528c-0.2791,-0.77596 -1.0058,-1.3011 -1.83015,-1.32254z"></path></g></g></svg>