<svg version="1.1" xmlns="http://www.w3.org/2000/svg" xmlns:xlink="http://www.w3.org/1999/xlink" width="50px" height="50px" viewBox="0,0,256,256"><g fill="#ffffff" fill-rule="nonzero" stroke="none" stroke-width="1" stroke-linecap="butt" stroke-linejoin="miter" stroke-miterlimit="10" stroke-dasharray="" stroke-dashoffset="0" font-family="none" font-weight="none" font-size="none" text-anchor="none" style="mix-blend-mode: normal"><g transform="scale(5.12,5.12)"><path d="M12,4c-2.0625,0 -3.82812,1.60547 -4,3.65625l-2,22c-0.09375,1.10938 0.30859,2.24219 1.0625,3.0625c0.75781,0.82031 1.82422,1.28125 2.9375,1.28125h30c1.11328,0 2.18359,-0.46094 2.9375,-1.28125c0.75781,-0.82031 1.15625,-1.94141 1.0625,-3.0625l-2,-22c-0.17187,-2.05859 -1.9375,-3.65625 -4,-3.65625zM5.84375,9.40625c-1.25781,0.60156 -2.14453,1.82813 -2.28125,3.3125l-2.53125,27.59375c-0.10937,1.19922 0.28125,2.39063 1.09375,3.28125c0.8125,0.89063 1.95313,1.40625 3.15625,1.40625h39.4375c1.20313,0 2.34375,-0.51562 3.15625,-1.40625c0.8125,-0.89062 1.20313,-2.08203 1.09375,-3.28125l-2.53125,-27.59375c-0.13672,-1.48437 -1.02344,-2.71094 -2.28125,-3.3125l1.84375,19.625v6.96875c0,3.30859 -2.69141,6 -6,6h-30c-3.30859,0 -6,-2.69141 -6,-6v-4.96875l0.03125,-2zM24.90625,10c1.98438,0 5.75,0.49219 5.75,2.25c0,1.09375 -1.03516,1.40625 -1.84375,1.40625c-1.4375,0 -2.48047,-0.875 -3.875,-0.875c-1.39453,0 -2.0625,0.62891 -2.0625,1.5c0,2.24609 9.40625,0.93359 9.40625,6.75c0,4.82031 -5.42969,5.5625 -6.75,5.5625c-2.21094,0 -8.25,-0.34766 -8.25,-2.84375c0,-1.58594 1.5,-1.875 2.40625,-1.875c1.14453,0 2.77344,1.15625 4.84375,1.15625c1.46875,0 3,-0.74219 3,-1.84375c0,-2.93359 -9.21875,-1.78906 -9.21875,-6.375c0,-3.75781 3.94922,-4.8125 6.59375,-4.8125zM6,34.46875v1.53125c0,2.20703 1.79297,4 4,4h30c2.20703,0 4,-1.79297 4,-4v-1.53125c-1.09375,0.98047 -2.51953,1.53125 -4,1.53125h-30c-1.47656,0 -2.90625,-0.55469 -4,-1.53125z"></path></g></g></svg>