<svg version="1.1" xmlns="http://www.w3.org/2000/svg" xmlns:xlink="http://www.w3.org/1999/xlink" width="50px" height="50px" viewBox="0,0,256,256"><g fill="#ffffff" fill-rule="nonzero" stroke="none" stroke-width="1" stroke-linecap="butt" stroke-linejoin="miter" stroke-miterlimit="10" stroke-dasharray="" stroke-dashoffset="0" font-family="none" font-weight="none" font-size="none" text-anchor="none" style="mix-blend-mode: normal"><g transform="scale(5.12,5.12)"><path d="M2.84375,3c-1.57031,0 -2.84375,1.27344 -2.84375,2.84375v4.15625h50v-4.15625c0,-1.57031 -1.27344,-2.84375 -2.84375,-2.84375zM0,12v34c0,0.55469 0.44922,1 1,1h48c0.55469,0 1,-0.44531 1,-1v-34zM15.09375,19.96875c0.25781,0.00391 0.49609,0.08203 0.6875,0.28125l6.625,6.8125l-6.78125,6.625c-0.19531,0.1875 -0.43359,0.28125 -0.6875,0.28125c-0.26172,0 -0.52344,-0.11328 -0.71875,-0.3125c-0.38672,-0.39453 -0.39453,-1.01953 0,-1.40625l5.375,-5.21875l-5.21875,-5.375c-0.38672,-0.39453 -0.39453,-1.01953 0,-1.40625c0.19922,-0.19531 0.46094,-0.28516 0.71875,-0.28125zM23,32h13c0.55469,0 1,0.44531 1,1c0,0.55469 -0.44531,1 -1,1h-13c-0.55078,0 -1,-0.44531 -1,-1c0,-0.55469 0.44922,-1 1,-1z"></path></g></g></svg>